# xmcd
#
# Track frame offsets: 
#        150
#        27577
#        41620
#        53615
#        71320
#        89467
#        112650
#        127315
#        152590
#        163840
#
# Disc length: 2429 seconds
#
# Revision: 2
# Processed by: cddbd v1.5.2PL0 Copyright (c) Steve Scherf et al.
# Submitted via: ExactAudioCopy v0.99pb5
#
DISCID=7e097b0a
DTITLE=Buckwheat Zydeco - Turning Point
DYEAR=1900
DGENRE=Blues
TTITLE0=Turning Point
TTITLE1=Buck's Boogie
TTITLE2=Madame Pitre
TTITLE3=Zydeco Boogaloo
TTITLE4=Mon Papa
TTITLE5=Zydeco La Louisianne
TTITLE6=Help Me Understand You
TTITLE7=I'm Just So Tired
TTITLE8=Tutti Frutti
TTITLE9=This Must Be Love
EXTD=
EXTT0=
EXTT1=
EXTT2=
EXTT3=
EXTT4=
EXTT5=
EXTT6=
EXTT7=
EXTT8=
EXTT9=
PLAYORDER=
